# xmcd CD database file
#
# Track frame offsets:
#	150
#	15760
#	31182
#	47677
#	64245
#	83770
#	99027
#	112087
#	130342
#	143700
#
# Disc length: 2154 seconds
#
# Revision: 7
# Processed by: cddbd v1.5.2PL0 Copyright (c) Steve Scherf et al.
# Submitted via: CDex 1.79
#
DISCID=7408680a
DTITLE=James House  - Days Gone By
DYEAR=1995
DGENRE=Country
TTITLE0=This Is Me Missing You
TTITLE1=A Real Good Way To Wind Up Lonesome
TTITLE2=Until You Set Me Free
TTITLE3=Anything For Love
TTITLE4=Little By Little
TTITLE5=Only A Fool
TTITLE6=Silence Makes A Lonesome Sound
TTITLE7=Days Gone By
TTITLE8=Take Me Away
TTITLE9=That's Something (You Don't See Every Day) 
EXTD=YEAR: 1995
EXTT0=
EXTT1=
EXTT2=
EXTT3=
EXTT4=
EXTT5=
EXTT6=
EXTT7=
EXTT8=
EXTT9=
PLAYORDER=
